# This file uses centimeters as units for non-parametric coordinates.

mtllib LightBulb.mtl
g default
v 2.523893 1.179695 -2.523894
v -0.000000 1.179695 -3.569326
v -2.523893 1.179695 -2.523894
v -3.569326 1.179695 -0.000000
v -2.523893 1.179695 2.523896
v -0.000000 1.179695 3.569325
v 2.523893 1.179695 2.523896
v 3.569326 1.179695 -0.000000
v 2.523893 7.372355 -2.523894
v -0.000000 7.372355 -3.569326
v -2.523893 7.372355 -2.523894
v -3.569326 7.372355 -0.000000
v -2.523893 7.372355 2.523896
v -0.000000 7.372355 3.569325
v 2.523893 7.372355 2.523896
v 3.569326 7.372355 -0.000000
v 2.523893 5.821812 -2.523894
v 2.523893 6.646907 -2.523894
v -0.000000 5.821812 -3.569326
v -0.000000 6.646907 -3.569326
v -2.523893 5.821812 -2.523894
v -2.523893 6.646907 -2.523894
v -3.569326 5.821812 -0.000000
v -3.569326 6.646907 -0.000000
v -2.523893 5.821812 2.523896
v -2.523893 6.646907 2.523896
v -0.000000 5.821812 3.569325
v -0.000000 6.646907 3.569325
v 2.523893 5.821812 2.523896
v 2.523893 6.646907 2.523896
v 3.569326 5.821812 -0.000000
v 3.569326 6.646907 -0.000000
v 2.523893 2.521107 -2.523894
v 2.523893 3.346202 -2.523894
v -0.000000 3.346202 -3.569326
v -0.000000 2.521107 -3.569326
v -2.523893 3.346202 -2.523894
v -2.523893 2.521107 -2.523894
v -3.569326 3.346202 -0.000000
v -3.569326 2.521107 -0.000000
v -2.523893 3.346202 2.523896
v -2.523893 2.521107 2.523896
v -0.000000 3.346202 3.569325
v -0.000000 2.521107 3.569325
v 2.523893 3.346202 2.523896
v 2.523893 2.521107 2.523896
v 3.569326 3.346202 -0.000000
v 3.569326 2.521107 -0.000000
v 2.523893 4.996550 -2.523894
v 2.523893 4.171461 -2.523894
v 3.569326 4.171461 -0.000000
v 3.569326 4.996550 -0.000000
v 2.523893 4.171461 2.523896
v 2.523893 4.996550 2.523896
v -0.000000 4.171461 3.569325
v -0.000000 4.996550 3.569325
v -2.523893 4.171461 2.523896
v -2.523893 4.996550 2.523896
v -3.569326 4.171461 -0.000000
v -3.569326 4.996550 -0.000000
v -2.523893 4.171461 -2.523894
v -2.523893 4.996550 -2.523894
v -0.000000 4.171461 -3.569326
v -0.000000 4.996550 -3.569326
v 3.108668 5.821812 -3.108669
v 3.108668 6.646907 -3.108669
v 4.396322 6.646907 -0.000000
v 4.396322 5.821812 -0.000000
v -0.000000 5.821812 -4.396320
v -0.000000 6.646907 -4.396320
v -3.108668 5.821812 -3.108669
v -3.108668 6.646907 -3.108669
v -4.396322 5.821812 -0.000000
v -4.396322 6.646907 -0.000000
v -3.108668 5.821812 3.108668
v -3.108668 6.646907 3.108668
v -0.000000 5.821812 4.396319
v -0.000000 6.646907 4.396319
v 3.108668 5.821812 3.108668
v 3.108668 6.646907 3.108668
v 3.108668 2.521107 -3.108669
v 3.108668 3.346202 -3.108669
v 4.396322 3.346202 -0.000000
v 4.396322 2.521107 -0.000000
v -0.000000 2.521107 -4.396320
v -0.000000 3.346202 -4.396320
v -3.108668 2.521107 -3.108669
v -3.108668 3.346202 -3.108669
v -4.396322 2.521107 -0.000000
v -4.396322 3.346202 -0.000000
v -3.108668 2.521107 3.108668
v -3.108668 3.346202 3.108668
v -0.000000 2.521107 4.396319
v -0.000000 3.346202 4.396319
v 3.108668 2.521107 3.108668
v 3.108668 3.346202 3.108668
v 3.108668 4.996550 -3.108669
v 3.108668 4.171461 -3.108669
v -0.000000 4.171461 -4.396320
v -0.000000 4.996550 -4.396320
v 4.396322 4.996550 -0.000000
v 4.396322 4.171461 -0.000000
v 3.108668 4.996550 3.108668
v 3.108668 4.171461 3.108668
v -0.000000 4.996550 4.396319
v -0.000000 4.171461 4.396319
v -3.108668 4.996550 3.108668
v -3.108668 4.171461 3.108668
v -4.396322 4.996550 -0.000000
v -4.396322 4.171461 -0.000000
v -3.108668 4.996550 -3.108669
v -3.108668 4.171461 -3.108669
v 3.294417 9.186995 -3.294418
v -0.000000 9.186995 -4.659010
v -3.294417 9.186995 -3.294418
v -4.659012 9.186995 -0.000000
v -3.294417 9.186995 3.294417
v -0.000000 9.186995 4.659008
v 3.294417 9.186995 3.294420
v 4.659012 9.186995 -0.000000
v 3.477684 13.460767 -3.477681
v -0.000000 13.460767 -4.918188
v -3.477684 13.460767 -3.477681
v -4.918185 13.460767 -0.000000
v -3.477684 13.460767 3.477683
v -0.000000 13.460767 4.918187
v 3.477684 13.460767 3.477683
v 4.918185 13.460767 -0.000000
v 5.717108 17.618036 -5.717111
v -0.000000 17.618036 -8.085216
v -5.717108 17.618036 -5.717111
v -8.085218 17.618036 -0.000000
v -5.717108 17.618036 5.717110
v -0.000000 17.618036 8.085215
v 5.717108 17.618036 5.717110
v 8.085212 17.618036 -0.000000
v 5.717108 26.652670 -5.717111
v -0.000000 26.652670 -8.085216
v -5.717108 26.652670 -5.717111
v -8.085218 26.652670 -0.000000
v -5.717108 26.652670 5.717110
v -0.000000 26.652670 8.085215
v 5.717108 26.652670 5.717110
v 8.085212 26.652670 -0.000000
v 4.059151 29.767966 -4.059154
v -0.000000 29.767966 -5.740506
v -4.059151 29.767966 -4.059154
v -5.740509 29.767966 -0.000000
v -4.059151 29.767966 4.059153
v -0.000001 29.767966 5.740505
v 4.059151 29.767966 4.059153
v 5.740508 29.767966 -0.000000
v 6.542018 22.135353 -6.542016
v -0.000000 22.135353 -9.251810
v -6.542018 22.135353 -6.542016
v -9.251812 22.135353 -0.000000
v -6.542018 22.135353 6.542021
v -0.000000 22.135353 9.251809
v 6.542018 22.135353 6.542021
v 9.251806 22.135353 -0.000000
v 1.190995 -0.000002 -1.190994
v -0.000000 -0.000002 -1.684320
v -1.190995 -0.000002 -1.190994
v -1.684320 -0.000002 -0.000000
v -1.190995 -0.000002 1.190994
v -0.000000 -0.000002 1.684319
v 1.190995 -0.000002 1.190994
v 1.684320 -0.000002 0.000000
v 0.000000 0.000000 0.000000
v 0.888644 31.167507 -2.145377
v -2.145377 31.167507 -0.888644
v -0.888644 31.167507 2.145376
v 2.145377 31.167507 0.888644
vt 0.702059 0.102175
vt 0.701513 0.097336
vt 0.594539 0.084690
vt 0.593356 0.089969
vt 0.612579 0.090185
vt 0.611535 0.094968
vt 0.629673 0.095429
vt 0.628847 0.100200
vt 0.647388 0.099267
vt 0.646868 0.104033
vt 0.665540 0.100895
vt 0.665397 0.105685
vt 0.683697 0.100170
vt 0.683938 0.104978
vt 0.696737 0.066233
vt 0.695447 0.061710
vt 0.610504 0.043297
vt 0.607516 0.048607
vt 0.624916 0.053899
vt 0.622675 0.058265
vt 0.638645 0.060843
vt 0.637094 0.065202
vt 0.652823 0.064551
vt 0.651981 0.069076
vt 0.666940 0.065510
vt 0.666891 0.070208
vt 0.681116 0.064835
vt 0.681773 0.069426
vt 0.716526 0.079103
vt 0.715420 0.074178
vt 0.600555 0.064084
vt 0.598768 0.069534
vt 0.700050 0.083916
vt 0.699267 0.079191
vt 0.683222 0.086960
vt 0.682858 0.082301
vt 0.666214 0.087774
vt 0.666333 0.083130
vt 0.649169 0.086254
vt 0.649768 0.081663
vt 0.632392 0.082301
vt 0.633420 0.077687
vt 0.616081 0.076377
vt 0.617505 0.071609
vt 0.606676 0.054659
vt 0.604320 0.060059
vt 0.714236 0.069598
vt 0.620848 0.062454
vt 0.619091 0.067308
vt 0.635747 0.069025
vt 0.634576 0.073495
vt 0.651139 0.072992
vt 0.650481 0.077460
vt 0.666638 0.074301
vt 0.666559 0.078864
vt 0.682110 0.073479
vt 0.682605 0.078018
vt 0.697575 0.070290
vt 0.698581 0.074861
vt 0.622747 0.032557
vt 0.615365 0.039933
vt 0.707410 0.051336
vt 0.632273 0.043544
vt 0.627365 0.050030
vt 0.643373 0.050086
vt 0.640327 0.056872
vt 0.655367 0.052864
vt 0.653773 0.060353
vt 0.666815 0.053245
vt 0.667060 0.061156
vt 0.679042 0.053142
vt 0.680560 0.060574
vt 0.691292 0.050600
vt 0.694205 0.057547
vt 0.700475 0.088166
vt 0.718126 0.088686
vt 0.701102 0.092913
vt 0.683313 0.091093
vt 0.683592 0.095764
vt 0.665922 0.091858
vt 0.665803 0.096506
vt 0.648520 0.090287
vt 0.648018 0.094914
vt 0.631433 0.086401
vt 0.630605 0.091093
vt 0.614897 0.080865
vt 0.613746 0.085860
vt 0.599153 0.075312
vt 0.597737 0.080576
vt 0.594339 0.095324
vt 0.584815 0.138817
vt 0.739221 0.143289
vt 0.610631 0.099448
vt 0.601361 0.144364
vt 0.627983 0.104471
vt 0.621747 0.145992
vt 0.646249 0.108270
vt 0.644590 0.145874
vt 0.665089 0.109946
vt 0.668878 0.145378
vt 0.683951 0.109275
vt 0.693558 0.145110
vt 0.702331 0.106535
vt 0.717465 0.144820
vt 0.576586 0.150003
vt 0.744152 0.155750
vt 0.596863 0.156436
vt 0.619453 0.158249
vt 0.643900 0.158029
vt 0.669409 0.157462
vt 0.695197 0.157247
vt 0.720411 0.157131
vt 0.565321 0.178097
vt 0.753228 0.182908
vt 0.588415 0.182864
vt 0.614624 0.183006
vt 0.642074 0.181859
vt 0.670101 0.181044
vt 0.698325 0.181256
vt 0.726289 0.182314
vt 0.545156 0.212637
vt 0.760335 0.217248
vt 0.577870 0.214803
vt 0.608761 0.211853
vt 0.638716 0.208922
vt 0.668352 0.207476
vt 0.698229 0.208266
vt 0.728662 0.211591
vt 0.758241 0.246360
vt 0.540669 0.249609
vt 0.554488 0.285479
vt 0.577181 0.243868
vt 0.585259 0.271684
vt 0.608950 0.237996
vt 0.613597 0.263673
vt 0.638860 0.234009
vt 0.641132 0.259373
vt 0.667807 0.232189
vt 0.667274 0.257398
vt 0.696983 0.233196
vt 0.693886 0.258530
vt 0.726791 0.237500
vt 0.720360 0.262933
vt 0.579238 0.308361
vt 0.731919 0.292251
vt 0.598853 0.292526
vt 0.620534 0.284253
vt 0.644511 0.280596
vt 0.666053 0.278340
vt 0.689427 0.279641
vt 0.710774 0.282921
vt 0.696246 0.028288
vt 0.643040 0.035353
vt 0.649661 0.039572
vt 0.658114 0.041090
vt 0.667970 0.039605
vt 0.677431 0.040704
vt 0.680878 0.030614
vt 0.609752 0.323157
vt 0.624142 0.306922
vt 0.656932 0.300624
vt 0.690726 0.300912
vt 0.718853 0.093242
vt 0.737233 0.089199
vt 0.709485 0.055591
vt 0.724440 0.046824
vt 0.732770 0.068197
vt 0.727415 0.058108
vt 0.713499 0.034606
vt 0.733329 0.079256
vt 0.736628 0.099604
vt 0.734364 0.084609
vt 0.719900 0.102570
vt 0.719536 0.098123
vt 0.738087 0.094554
vt 0.719859 0.042794
vt 0.712705 0.064621
vt 0.711381 0.060276
vt 0.727216 0.052246
vt 0.729338 0.063648
vt 0.717210 0.083622
vt 0.734253 0.073745
vt 0.737127 0.103973
vt 0.765665 0.150147
vt 0.777444 0.180163
vt 0.792793 0.260649
vt 0.747456 0.273166
vt 0.772762 0.292331
vt 0.795306 0.221637
vt 0.702830 0.044549
vt 0.692533 0.035207
vt 0.685781 0.039370
vt 0.639575 0.317740
vt 0.627489 0.334208
vt 0.747202 0.309091
vt 0.715769 0.310594
vt 0.702852 0.110813
vt 0.720465 0.106888
vt 0.684194 0.113572
vt 0.664978 0.114246
vt 0.645786 0.112552
vt 0.627242 0.108731
vt 0.609804 0.103733
vt 0.593538 0.099643
vt 0.756887 0.138097
vt 0.639712 0.028967
vt 0.654284 0.030791
vn 0.584447 -0.562889 -0.584447
vn 0.584447 0.562889 -0.584447
vn 0.826533 0.562889 -0.000000
vn 0.826533 -0.562889 0.000000
vn 0.000000 -0.562888 -0.826533
vn 0.000000 0.562888 -0.826533
vn -0.584447 -0.562889 -0.584447
vn -0.584447 0.562889 -0.584447
vn -0.826533 -0.562889 -0.000000
vn -0.826533 0.562889 0.000000
vn -0.584447 -0.562888 0.584447
vn -0.584447 0.562888 0.584447
vn 0.000000 -0.562888 0.826533
vn 0.000000 0.562888 0.826533
vn 0.584447 -0.562888 0.584447
vn 0.584447 0.562888 0.584447
vn 0.584447 -0.562888 -0.584447
vn 0.584447 0.562888 -0.584447
vn 0.826533 0.562889 -0.000000
vn 0.826533 -0.562889 0.000000
vn 0.000000 -0.562888 -0.826533
vn 0.000000 0.562888 -0.826533
vn -0.584447 -0.562889 -0.584447
vn -0.584447 0.562889 -0.584447
vn -0.826533 -0.562889 -0.000000
vn -0.826533 0.562889 0.000000
vn -0.584447 -0.562888 0.584447
vn -0.584447 0.562888 0.584447
vn 0.000000 -0.562888 0.826533
vn 0.000000 0.562888 0.826533
vn 0.584447 -0.562888 0.584447
vn 0.584447 0.562888 0.584447
vn 0.584445 0.562891 -0.584446
vn 0.584445 -0.562891 -0.584446
vn 0.000000 -0.562891 -0.826531
vn 0.000000 0.562891 -0.826531
vn 0.826531 0.562891 0.000000
vn 0.826531 -0.562892 0.000000
vn 0.584446 0.562891 0.584446
vn 0.584446 -0.562891 0.584446
vn 0.000000 0.562890 0.826532
vn 0.000000 -0.562890 0.826532
vn -0.584446 0.562891 0.584446
vn -0.584446 -0.562891 0.584446
vn -0.826531 0.562892 0.000000
vn -0.826531 -0.562891 -0.000000
vn -0.584445 0.562891 -0.584446
vn -0.584445 -0.562891 -0.584446
vn 0.707107 0.000000 -0.707107
vn 0.000000 0.000000 -1.000000
vn 0.000000 0.000000 -1.000000
vn 0.707107 0.000000 -0.707107
vn -0.707107 0.000000 -0.707107
vn -0.707107 0.000000 -0.707107
vn -1.000000 0.000000 0.000000
vn -1.000000 0.000000 0.000000
vn -0.707107 0.000000 0.707107
vn -0.707107 0.000000 0.707107
vn 0.000000 0.000000 1.000000
vn 0.000000 0.000000 1.000000
vn 0.707107 0.000000 0.707107
vn 0.707107 0.000000 0.707107
vn 1.000000 0.000000 0.000000
vn 1.000000 0.000000 0.000000
vn 0.622071 -0.475454 -0.622071
vn 0.000000 -0.475454 -0.879741
vn -0.000000 0.000000 -1.000000
vn 0.707107 0.000000 -0.707107
vn -0.622071 -0.475454 -0.622071
vn -0.707107 0.000000 -0.707107
vn -0.879741 -0.475454 0.000000
vn -1.000000 0.000000 0.000000
vn -0.622071 -0.475454 0.622071
vn -0.707107 0.000000 0.707107
vn 0.000000 -0.475454 0.879741
vn 0.000000 0.000000 1.000000
vn 0.622070 -0.475454 0.622071
vn 0.707107 0.000000 0.707107
vn 0.879741 -0.475454 -0.000000
vn 1.000000 0.000000 0.000000
vn 1.000000 0.000000 -0.000000
vn 0.707107 0.000000 -0.707107
vn 0.707107 0.000000 -0.707107
vn 1.000000 0.000000 -0.000000
vn 0.707107 0.000000 0.707107
vn 0.707107 0.000000 0.707107
vn 0.000000 0.000000 1.000000
vn 0.000000 0.000000 1.000000
vn -0.707107 0.000000 0.707107
vn -0.707107 0.000000 0.707107
vn -1.000000 0.000000 -0.000000
vn -1.000000 0.000000 -0.000000
vn -0.707107 0.000000 -0.707107
vn -0.707107 0.000000 -0.707107
vn 0.000000 0.000000 -1.000000
vn 0.000000 0.000000 -1.000000
vn 0.707107 0.000000 -0.707107
vn 0.000000 0.000000 -1.000000
vn -0.000000 -0.417239 -0.908797
vn 0.642616 -0.417239 -0.642617
vn -0.707107 0.000000 -0.707107
vn -0.642616 -0.417239 -0.642617
vn -1.000000 0.000000 0.000000
vn -0.908797 -0.417239 -0.000000
vn -0.707107 0.000000 0.707107
vn -0.642616 -0.417238 0.642617
vn 0.000000 0.000000 1.000000
vn -0.000000 -0.417238 0.908797
vn 0.707107 0.000000 0.707107
vn 0.642616 -0.417239 0.642616
vn 1.000000 0.000000 0.000000
vn 0.908797 -0.417239 -0.000000
vn 0.000000 1.000000 -0.000000
vn 0.000000 1.000000 -0.000000
vn 0.000000 -1.000000 0.000000
vn 0.000000 -1.000000 0.000000
vn 0.000000 -1.000000 -0.000000
vn 0.000000 1.000000 -0.000000
vn 0.000000 -1.000000 0.000000
vn 0.000000 1.000000 -0.000000
vn 0.000000 -1.000000 -0.000000
vn 0.000000 1.000000 0.000000
vn 0.000000 -1.000000 -0.000000
vn 0.000000 1.000000 0.000000
vn 0.000000 -1.000000 -0.000000
vn 0.000000 1.000000 0.000000
vn 0.000000 -1.000000 -0.000000
vn 0.000000 1.000000 0.000000
vn 0.000000 1.000000 -0.000000
vn 0.000000 1.000000 -0.000000
vn 0.000000 -1.000000 0.000000
vn 0.000000 -1.000000 -0.000000
vn 0.000000 -1.000000 -0.000000
vn 0.000000 1.000000 -0.000000
vn 0.000000 -1.000000 -0.000000
vn 0.000000 1.000000 0.000000
vn 0.000000 -1.000000 -0.000000
vn 0.000000 1.000000 0.000000
vn 0.000000 -1.000000 0.000000
vn 0.000000 1.000000 -0.000000
vn 0.000000 -1.000000 0.000000
vn 0.000000 1.000000 -0.000000
vn 0.000000 -1.000000 0.000000
vn 0.000000 1.000000 -0.000000
vn 0.000000 -1.000000 0.000000
vn 0.000000 -1.000000 0.000000
vn 0.000000 1.000000 -0.000000
vn 0.000000 1.000000 -0.000000
vn 0.000000 1.000000 0.000000
vn 0.000000 -1.000000 0.000000
vn 0.000000 1.000000 0.000000
vn 0.000000 -1.000000 0.000000
vn 0.000000 1.000000 0.000000
vn 0.000000 -1.000000 -0.000000
vn 0.000000 1.000000 0.000000
vn 0.000000 -1.000000 -0.000000
vn 0.000000 1.000000 0.000000
vn 0.000000 -1.000000 -0.000000
vn 0.000000 1.000000 0.000000
vn 0.000000 -1.000000 -0.000000
vn -0.000000 -0.186361 -0.982481
vn 0.694719 -0.186361 -0.694719
vn -0.694719 -0.186361 -0.694719
vn -0.982481 -0.186361 -0.000000
vn -0.694719 -0.186361 0.694719
vn -0.000000 -0.186361 0.982481
vn 0.694719 -0.186361 0.694719
vn 0.982481 -0.186361 -0.000000
vn 0.000000 -0.436953 -0.899484
vn 0.636032 -0.436953 -0.636031
vn -0.636032 -0.436953 -0.636031
vn -0.899484 -0.436953 0.000000
vn -0.636032 -0.436953 0.636031
vn -0.000000 -0.436953 0.899484
vn 0.636032 -0.436953 0.636031
vn 0.899484 -0.436953 -0.000000
vn 0.000000 -0.400966 -0.916093
vn 0.647776 -0.400966 -0.647776
vn -0.647776 -0.400966 -0.647776
vn -0.916093 -0.400966 0.000000
vn -0.647776 -0.400966 0.647776
vn 0.000000 -0.400966 0.916093
vn 0.647776 -0.400966 0.647776
vn 0.916093 -0.400966 -0.000000
vn 0.707107 -0.000000 -0.707106
vn 0.000000 0.000000 -1.000000
vn -0.000000 0.379133 -0.925342
vn 0.654316 0.379133 -0.654316
vn -0.707107 0.000000 -0.707107
vn -0.654315 0.379133 -0.654316
vn -1.000000 -0.000000 0.000000
vn -0.925342 0.379133 -0.000000
vn -0.707107 -0.000000 0.707107
vn -0.654316 0.379133 0.654316
vn 0.000000 -0.000000 1.000000
vn -0.000000 0.379133 0.925342
vn 0.707107 -0.000000 0.707107
vn 0.654316 0.379133 0.654316
vn 1.000000 -0.000000 0.000000
vn 0.925342 0.379133 -0.000000
vn -0.019013 0.723120 -0.690460
vn 0.501673 0.723120 -0.474785
vn -0.474785 0.723120 -0.501673
vn -0.690460 0.723120 0.019013
vn -0.501673 0.723120 0.474785
vn 0.019013 0.723120 0.690460
vn 0.474785 0.723120 0.501673
vn 0.690461 0.723120 -0.019013
vn 0.331857 -0.883030 -0.331857
vn 0.000000 -0.883030 -0.469317
vn -0.331857 -0.883030 -0.331857
vn -0.469317 -0.883030 0.000000
vn -0.331857 -0.883030 0.331857
vn 0.000000 -0.883030 0.469317
vn 0.331857 -0.883030 0.331857
vn 0.469317 -0.883030 -0.000000
vn -0.000000 -1.000000 0.000000
vn 0.085223 0.974887 -0.205747
vn -0.205747 0.974887 -0.085223
vn -0.085223 0.974887 0.205747
vn 0.205747 0.974887 0.085223
s 1
g pCylinder1
usemtl initialShadingGroup
f 65/163/1 66/174/2 67/1/3 68/2/4
f 66/174/2 65/163/1 69/164/5 70/175/6
f 70/4/6 69/3/5 71/5/7 72/6/8
f 72/6/8 71/5/7 73/7/9 74/8/10
f 74/8/10 73/7/9 75/9/11 76/10/12
f 76/10/12 75/9/11 77/11/13 78/12/14
f 78/12/14 77/11/13 79/13/15 80/14/16
f 80/14/16 79/13/15 68/2/4 67/1/3
s 2
f 81/165/17 82/178/18 83/15/19 84/16/20
f 82/178/18 81/165/17 85/166/21 86/179/22
f 86/18/22 85/17/21 87/19/23 88/20/24
f 88/20/24 87/19/23 89/21/25 90/22/26
f 90/22/26 89/21/25 91/23/27 92/24/28
f 92/24/28 91/23/27 93/25/29 94/26/30
f 94/26/30 93/25/29 95/27/31 96/28/32
f 96/28/32 95/27/31 84/16/20 83/15/19
s 3
f 97/29/33 98/30/34 99/167/35 100/182/36
f 98/30/34 97/29/33 101/33/37 102/34/38
f 102/34/38 101/33/37 103/35/39 104/36/40
f 104/36/40 103/35/39 105/37/41 106/38/42
f 106/38/42 105/37/41 107/39/43 108/40/44
f 108/40/44 107/39/43 109/41/45 110/42/46
f 110/42/46 109/41/45 111/43/47 112/44/48
f 112/44/48 111/43/47 100/32/36 99/31/35
s 4
f 34/177/49 35/168/50 63/180/51 50/47/52
f 35/45/50 37/48/53 61/49/54 63/46/51
f 37/48/53 39/50/55 59/51/56 61/49/54
f 39/50/55 41/52/57 57/53/58 59/51/56
f 41/52/57 43/54/59 55/55/60 57/53/58
f 43/54/59 45/56/61 53/57/62 55/55/60
f 45/56/61 47/58/63 51/59/64 53/57/62
f 47/58/63 34/177/49 50/47/52 51/59/64
s 5
f 1/190/65 2/169/66 36/176/67 33/62/68
f 2/60/66 3/63/69 38/64/70 36/61/67
f 3/63/69 4/65/71 40/66/72 38/64/70
f 4/65/71 5/67/73 42/68/74 40/66/72
f 5/67/73 6/69/75 44/70/76 42/68/74
f 6/69/75 7/71/77 46/72/78 44/70/76
f 7/71/77 8/73/79 48/74/80 46/72/78
f 8/73/79 1/190/65 33/62/68 48/74/80
s 6
f 52/75/81 49/181/82 17/76/83 31/77/84
f 54/78/85 52/75/81 31/77/84 29/79/86
f 56/80/87 54/78/85 29/79/86 27/81/88
f 58/82/89 56/80/87 27/81/88 25/83/90
f 60/84/91 58/82/89 25/83/90 23/85/92
f 62/86/93 60/84/91 23/85/92 21/87/94
f 64/88/95 62/86/93 21/87/94 19/89/96
f 49/181/82 64/170/95 19/172/96 17/76/83
s 7
f 18/173/97 20/171/98 10/183/99 9/198/100
f 20/90/98 22/93/101 11/203/102 10/204/99
f 22/93/101 24/95/103 12/202/104 11/203/102
f 24/95/103 26/97/105 13/201/106 12/202/104
f 26/97/105 28/99/107 14/200/108 13/201/106
f 28/99/107 30/101/109 15/199/110 14/200/108
f 30/101/109 32/103/111 16/197/112 15/199/110
f 32/103/111 18/173/97 9/198/100 16/197/112
s 1
f 18/173/113 32/103/114 67/1/3 66/174/2
f 31/77/115 17/76/116 65/163/1 68/2/4
f 17/76/116 19/172/117 69/164/5 65/163/1
f 20/171/118 18/173/113 66/174/2 70/175/6
f 19/89/117 21/87/119 71/5/7 69/3/5
f 22/93/120 20/90/118 70/4/6 72/6/8
f 21/87/119 23/85/121 73/7/9 71/5/7
f 24/95/122 22/93/120 72/6/8 74/8/10
f 23/85/121 25/83/123 75/9/11 73/7/9
f 26/97/124 24/95/122 74/8/10 76/10/12
f 25/83/123 27/81/125 77/11/13 75/9/11
f 28/99/126 26/97/124 76/10/12 78/12/14
f 27/81/125 29/79/127 79/13/15 77/11/13
f 30/101/128 28/99/126 78/12/14 80/14/16
f 29/79/127 31/77/115 68/2/4 79/13/15
f 32/103/114 30/101/128 80/14/16 67/1/3
s 2
f 34/177/129 47/58/130 83/15/19 82/178/18
f 48/74/131 33/62/132 81/165/17 84/16/20
f 33/62/132 36/176/133 85/166/21 81/165/17
f 35/168/134 34/177/129 82/178/18 86/179/22
f 36/61/133 38/64/135 87/19/23 85/17/21
f 37/48/136 35/45/134 86/18/22 88/20/24
f 38/64/135 40/66/137 89/21/25 87/19/23
f 39/50/138 37/48/136 88/20/24 90/22/26
f 40/66/137 42/68/139 91/23/27 89/21/25
f 41/52/140 39/50/138 90/22/26 92/24/28
f 42/68/139 44/70/141 93/25/29 91/23/27
f 43/54/142 41/52/140 92/24/28 94/26/30
f 44/70/141 46/72/143 95/27/31 93/25/29
f 45/56/144 43/54/142 94/26/30 96/28/32
f 46/72/143 48/74/131 84/16/20 95/27/31
f 47/58/130 45/56/144 96/28/32 83/15/19
s 3
f 50/47/145 63/180/146 99/167/35 98/30/34
f 64/170/147 49/181/148 97/29/33 100/182/36
f 49/181/148 52/75/149 101/33/37 97/29/33
f 51/59/150 50/47/145 98/30/34 102/34/38
f 52/75/149 54/78/151 103/35/39 101/33/37
f 53/57/152 51/59/150 102/34/38 104/36/40
f 54/78/151 56/80/153 105/37/41 103/35/39
f 55/55/154 53/57/152 104/36/40 106/38/42
f 56/80/153 58/82/155 107/39/43 105/37/41
f 57/53/156 55/55/154 106/38/42 108/40/44
f 58/82/155 60/84/157 109/41/45 107/39/43
f 59/51/158 57/53/156 108/40/44 110/42/46
f 60/84/157 62/86/159 111/43/47 109/41/45
f 61/49/160 59/51/158 110/42/46 112/44/48
f 62/86/159 64/88/147 100/32/36 111/43/47
f 63/46/146 61/49/160 112/44/48 99/31/35
s 7
f 9/92/100 10/205/99 114/184/161 113/106/162
f 10/91/99 11/94/102 115/107/163 114/105/161
f 11/94/102 12/96/104 116/108/164 115/107/163
f 12/96/104 13/98/106 117/109/165 116/108/164
f 13/98/106 14/100/108 118/110/166 117/109/165
f 14/100/108 15/102/110 119/111/167 118/110/166
f 15/102/110 16/104/112 120/112/168 119/111/167
f 16/104/112 9/92/100 113/106/162 120/112/168
f 113/106/162 114/184/161 122/185/169 121/114/170
f 114/105/161 115/107/163 123/115/171 122/113/169
f 115/107/163 116/108/164 124/116/172 123/115/171
f 116/108/164 117/109/165 125/117/173 124/116/172
f 117/109/165 118/110/166 126/118/174 125/117/173
f 118/110/166 119/111/167 127/119/175 126/118/174
f 119/111/167 120/112/168 128/120/176 127/119/175
f 120/112/168 113/106/162 121/114/170 128/120/176
f 121/114/170 122/185/169 130/189/177 129/122/178
f 122/113/169 123/115/171 131/123/179 130/121/177
f 123/115/171 124/116/172 132/124/180 131/123/179
f 124/116/172 125/117/173 133/125/181 132/124/180
f 125/117/173 126/118/174 134/126/182 133/125/181
f 126/118/174 127/119/175 135/127/183 134/126/182
f 127/119/175 128/120/176 136/128/184 135/127/183
f 128/120/176 121/114/170 129/122/178 136/128/184
f 153/129/185 154/186/186 138/188/187 137/187/188
f 154/130/186 155/132/189 139/133/190 138/131/187
f 155/132/189 156/134/191 140/135/192 139/133/190
f 156/134/191 157/136/193 141/137/194 140/135/192
f 157/136/193 158/138/195 142/139/196 141/137/194
f 158/138/195 159/140/197 143/141/198 142/139/196
f 159/140/197 160/142/199 144/143/200 143/141/198
f 160/142/199 153/129/185 137/187/188 144/143/200
f 137/187/188 138/188/187 146/195/201 145/145/202
f 138/131/187 139/133/190 147/146/203 146/144/201
f 139/133/190 140/135/192 148/147/204 147/146/203
f 140/135/192 141/137/194 149/148/205 148/147/204
f 141/137/194 142/139/196 150/149/206 149/148/205
f 142/139/196 143/141/198 151/150/207 150/149/206
f 143/141/198 144/143/200 152/151/208 151/150/207
f 144/143/200 137/187/188 145/145/202 152/151/208
f 129/122/178 130/189/177 154/186/186 153/129/185
f 130/121/177 131/123/179 155/132/189 154/130/186
f 131/123/179 132/124/180 156/134/191 155/132/189
f 132/124/180 133/125/181 157/136/193 156/134/191
f 133/125/181 134/126/182 158/138/195 157/136/193
f 134/126/182 135/127/183 159/140/197 158/138/195
f 135/127/183 136/128/184 160/142/199 159/140/197
f 136/128/184 129/122/178 153/129/185 160/142/199
s 5
f 2/169/66 1/190/65 161/191/209 162/152/210
f 3/63/69 2/60/66 162/206/210 163/153/211
f 4/65/71 3/63/69 163/153/211 164/154/212
f 5/67/73 4/65/71 164/154/212 165/155/213
f 6/69/75 5/67/73 165/155/213 166/156/214
f 7/71/77 6/69/75 166/156/214 167/157/215
f 8/73/79 7/71/77 167/157/215 168/192/216
f 1/190/65 8/73/79 168/192/216 161/191/209
f 162/152/210 161/191/209 169/158/217
f 163/153/211 162/206/210 169/207/217
f 164/154/212 163/153/211 169/207/217
f 165/155/213 164/154/212 169/207/217
f 166/156/214 165/155/213 169/207/217
f 167/157/215 166/156/214 169/158/217
f 168/192/216 167/157/215 169/158/217
f 161/191/209 168/192/216 169/158/217
s 7
f 145/145/202 146/195/201 170/196/218
f 146/144/201 147/146/203 171/160/219 170/159/218
f 147/146/203 148/147/204 171/160/219
f 148/147/204 149/148/205 172/161/220 171/160/219
f 149/148/205 150/149/206 172/161/220
f 150/149/206 151/150/207 173/162/221 172/161/220
f 151/150/207 152/151/208 173/162/221
f 152/151/208 145/145/202 170/196/218 173/162/221
f 170/159/218 171/160/219 172/193/220 173/194/221
