# This file uses centimeters as units for non-parametric coordinates.

mtllib Palazzo3-2.mtl
g default
v 271.210419 982.903320 271.210327
v 271.210419 982.903320 -271.210327
v -271.210297 982.903320 271.210327
v -271.210297 982.903320 -271.210327
v 271.210419 996.792358 271.210327
v 271.210419 996.792358 -271.210327
v -271.210297 996.792358 271.210327
v -271.210297 996.792358 -271.210327
v 238.212097 996.792358 238.212021
v 238.212097 996.792358 -238.212021
v -238.212021 996.792358 238.212021
v -238.212021 996.792358 -238.212021
v 238.212097 1017.637451 238.212021
v 238.212097 1017.637451 -238.212021
v -238.212021 1017.637451 238.212021
v -238.212021 1017.637451 -238.212021
vt 0.503855 -0.337589
vt 0.673746 -0.312181
vt 0.505194 -0.332679
vt 0.361709 -0.235270
vt 0.366062 -0.232687
vt 0.341447 -0.048243
vt 0.346556 -0.047461
vt 0.667250 -0.300030
vt 0.508242 -0.319321
vt 0.378182 -0.224820
vt 0.360055 -0.057978
vt 0.514530 -0.315116
vt 0.380420 -0.217818
vt 0.367638 -0.056847
vt 0.676179 -0.316646
vt 0.798739 -0.163171
vt 0.794681 -0.159933
vt 0.778152 -0.161377
vt 0.663480 -0.293378
vt 0.772251 -0.156458
vt 0.622733 -0.174408
vt 0.480769 -0.072308
vn 1.000000 0.000000 0.000000
vn 1.000000 0.000000 0.000000
vn 1.000000 0.000000 0.000000
vn 1.000000 0.000000 0.000000
vn 0.000000 0.000000 1.000000
vn 0.000000 0.000000 1.000000
vn 0.000000 0.000000 1.000000
vn 0.000000 0.000000 1.000000
vn 0.000000 0.000000 -1.000000
vn 0.000000 0.000000 -1.000000
vn 0.000000 0.000000 -1.000000
vn 0.000000 0.000000 -1.000000
vn -1.000000 0.000000 0.000000
vn -1.000000 0.000000 0.000000
vn -1.000000 0.000000 0.000000
vn -1.000000 0.000000 0.000000
vn 0.000000 1.000000 0.000001
vn 0.000000 1.000000 -0.000001
vn 0.000000 1.000000 -0.000001
vn 0.000000 1.000000 0.000001
vn 0.000000 1.000000 0.000001
vn 0.000000 1.000000 0.000001
vn 0.000000 1.000000 -0.000001
vn 0.000000 1.000000 -0.000001
vn 1.000000 0.000000 0.000000
vn 1.000000 0.000000 0.000000
vn 1.000000 0.000000 0.000000
vn 1.000000 0.000000 0.000000
vn 0.000000 0.000000 1.000000
vn 0.000000 0.000000 1.000000
vn 0.000000 0.000000 1.000000
vn 0.000000 0.000000 1.000000
vn 0.000000 0.000000 -1.000000
vn 0.000000 0.000000 -1.000000
vn 0.000000 0.000000 -1.000000
vn 0.000000 0.000000 -1.000000
vn -1.000000 0.000000 0.000000
vn -1.000000 0.000000 0.000000
vn -1.000000 0.000000 0.000000
vn -1.000000 0.000000 0.000000
vn 0.000000 1.000000 0.000000
vn 0.000000 1.000000 0.000000
vn 0.000000 1.000000 0.000000
vn 0.000000 1.000000 0.000000
s off
g pCube54
usemtl initialShadingGroup
f 1/1/1 2/15/2 6/2/3 5/3/4
f 3/4/5 1/1/6 5/3/7 7/5/8
f 2/15/9 4/16/10 8/17/11 6/2/12
f 4/6/13 3/4/14 7/5/15 8/7/16
s 1
f 5/3/17 6/2/18 10/8/19 9/9/20
f 7/5/21 5/3/17 9/9/20 11/10/22
f 6/2/18 8/17/23 12/18/24 10/8/19
f 8/7/23 7/5/21 11/10/22 12/11/24
s off
f 9/9/25 10/8/26 14/19/27 13/12/28
f 11/10/29 9/9/30 13/12/31 15/13/32
f 10/8/33 12/18/34 16/20/35 14/19/36
f 12/11/37 11/10/38 15/13/39 16/14/40
f 15/13/41 13/12/42 14/21/43 16/22/44
