# This file uses centimeters as units for non-parametric coordinates.

mtllib LightPole.mtl
g default
v 125.300400 404.711029 11.206600
v 143.466110 404.711029 11.206600
v 125.300400 411.734894 11.206600
v 143.466110 411.734894 11.206600
v 125.300400 411.734894 -10.495399
v 143.466110 411.734894 -10.495399
v 125.300400 404.711029 -10.495399
v 143.466110 404.711029 -10.495399
v 153.059204 404.711029 -5.829900
v 153.059204 404.711029 6.541200
v 153.059204 411.734894 -5.829900
v 153.059204 411.734894 6.541200
v 102.906403 404.711029 -4.135900
v 102.906403 404.711029 4.847200
v 102.906403 411.734894 4.847200
v 102.906403 411.734894 -4.135900
v 125.300400 415.738678 9.212999
v 143.466110 415.738678 9.212999
v 143.466110 415.738678 -8.501700
v 125.300400 415.738678 -8.501700
v 150.436798 414.337921 5.404800
v 150.436798 414.337921 -4.693500
v 106.307198 414.337921 -3.310700
v 106.307198 414.337921 4.022000
v 13.580600 4.783500 -7.840800
v 0.000000 4.783500 -15.681601
v -13.580600 4.783500 -7.840800
v -13.580600 4.783500 7.840800
v 0.000000 4.783500 15.681601
v 13.580600 4.783500 7.840800
v 10.950300 55.782997 -6.322100
v 0.000000 55.782997 -12.644300
v -10.950300 55.782997 -6.322100
v -10.950300 55.782997 6.322100
v 0.000000 55.782997 12.644300
v 10.950300 55.782997 6.322100
v 4.915500 63.438805 -2.838000
v 0.000000 63.438805 -5.675900
v -4.915500 63.438805 -2.838000
v -4.915500 63.438805 2.838000
v 0.000000 63.438805 5.675900
v 4.915500 63.438805 2.837900
v 4.915500 406.037903 -2.838000
v 0.000000 406.037903 -5.676000
v 0.000000 406.037903 0.000000
v -4.915500 406.037903 -2.838000
v -4.915500 406.037903 2.837900
v 0.000000 406.037903 5.675900
v 4.915500 406.037903 2.838000
v 4.915500 398.864594 -2.838000
v 0.000000 398.864594 -5.676000
v -4.915500 398.864594 -2.838000
v -4.915500 398.864594 2.837900
v 0.000000 398.864594 5.675900
v 4.915500 398.864594 2.838000
v 4.915500 345.063904 -2.838000
v 0.000000 345.063904 -5.676000
v -4.915500 345.063904 -2.838000
v -4.915500 345.063904 2.837900
v 0.000000 345.063904 5.675900
v 4.915500 345.063904 2.838000
v 6.037100 345.063904 -3.485500
v 0.000000 345.063904 -6.971100
v 0.000000 398.864594 -6.971100
v 6.037100 398.864594 -3.485500
v -6.037100 345.063904 -3.485600
v -6.037100 398.864594 -3.485600
v -6.037100 345.063904 3.485500
v -6.037100 398.864594 3.485500
v 0.000000 345.063904 6.971100
v 0.000000 398.864594 6.971100
v 6.037100 345.063904 3.485600
v 6.037100 398.864594 3.485600
v -20.487999 0.000000 20.487999
v 20.487999 0.000000 20.487999
v -20.487999 4.783500 20.487999
v 20.487999 4.783500 20.487999
v -20.487999 4.783500 -20.487999
v 20.487999 4.783500 -20.487999
v -20.487999 0.000000 -20.487999
v 20.487999 0.000000 -20.487999
v 4.493400 368.971497 -3.588000
v 3.566900 373.289825 -3.588000
v 3.103600 375.448975 0.000000
v 3.566900 373.289825 3.588000
v 4.493400 368.971497 3.588000
v 4.956600 366.812286 0.000000
v 102.906403 406.837616 -2.217600
v 102.906403 409.608398 -2.217600
v 102.906403 410.993713 0.000000
v 102.906403 409.608398 2.217500
v 102.906403 406.837616 2.217500
v 102.906403 405.452209 0.000000
v 4.030100 371.130707 0.000000
v 102.906403 408.223022 0.000000
v 52.370697 393.077301 -3.077700
v 51.576000 396.781372 -3.077700
v 51.178600 398.633392 0.000000
v 51.576000 396.781372 3.077600
v 52.370697 393.077301 3.077600
v 52.768097 391.225220 0.000000
v 77.746201 401.100311 -2.821900
v 78.110497 399.402191 0.000000
v 77.746201 401.100311 2.821900
v 77.017494 404.496613 2.821900
v 76.653099 406.194702 0.000000
v 77.017494 404.496613 -2.821900
v 29.062599 382.093079 -3.588000
v 28.136101 386.411499 -3.588000
v 27.672800 388.570587 0.000000
v 28.136101 386.411499 3.588000
v 29.062599 382.093079 3.588000
v 29.525799 379.934021 0.000000
vt 0.557309 0.091616
vt 0.552025 0.157516
vt 0.533218 0.148586
vt 0.538479 0.095189
vt 0.524943 0.096870
vt 0.521191 0.144811
vt 0.472358 0.144875
vt 0.470919 0.095728
vt 0.457327 0.094086
vt 0.460383 0.148574
vt 0.443701 0.155978
vt 0.436205 0.089655
vt 0.281600 0.260779
vt 0.281600 0.209748
vt 0.342566 0.209748
vt 0.342565 0.260779
vt 0.520791 0.188307
vt 0.471537 0.189666
vt 0.480176 0.171515
vt 0.514155 0.173174
vt 0.478687 0.019861
vt 0.519822 0.019572
vt 0.510102 0.037064
vt 0.486409 0.034407
vt 0.294706 0.182799
vt 0.329460 0.182799
vt 0.510757 0.163302
vt 0.483428 0.162447
vt 0.324700 0.323689
vt 0.299464 0.323689
vt 0.489038 0.045986
vt 0.506969 0.047928
vt 0.195460 0.029104
vt 0.231354 0.040728
vt 0.184318 0.156770
vt 0.159937 0.145691
vt 0.012342 0.027358
vt 0.048569 0.021338
vt 0.069277 0.140898
vt 0.042425 0.149446
vt 0.085343 0.017502
vt 0.093197 0.137679
vt 0.122208 0.017330
vt 0.115452 0.137460
vt 0.158973 0.021182
vt 0.137323 0.139876
vt 0.241647 0.153646
vt 0.227839 0.161619
vt 0.227839 0.145674
vt 0.214030 0.153647
vt 0.214030 0.137702
vt 0.227839 0.129729
vt 0.241647 0.137701
vt 0.154721 0.167040
vt 0.141195 0.164614
vt 0.084489 0.164579
vt 0.070925 0.166885
vt 0.098552 0.163405
vt 0.112836 0.163058
vt 0.127123 0.163437
vt 0.141846 0.964656
vt 0.155298 0.968343
vt 0.150200 0.985270
vt 0.137303 0.981628
vt 0.066451 0.967201
vt 0.080372 0.963691
vt 0.084093 0.980485
vt 0.071543 0.983524
vt 0.095701 0.962543
vt 0.097304 0.979219
vt 0.111177 0.962421
vt 0.110860 0.979011
vt 0.126622 0.963060
vt 0.124334 0.979686
vt 0.141790 0.834746
vt 0.157752 0.832354
vt 0.158204 0.966044
vt 0.142734 0.962179
vt 0.068376 0.831634
vt 0.083696 0.834251
vt 0.079726 0.961095
vt 0.063450 0.964756
vt 0.098375 0.834828
vt 0.095651 0.960046
vt 0.112686 0.834969
vt 0.111363 0.959949
vt 0.127012 0.835021
vt 0.127027 0.960579
vt 0.154160 0.830022
vt 0.140618 0.832032
vt 0.085166 0.831702
vt 0.071742 0.829641
vt 0.098965 0.832242
vt 0.112861 0.832413
vt 0.126770 0.832429
vt 0.281459 0.024620
vt 0.396570 0.024620
vt 0.396570 0.038058
vt 0.281459 0.038058
vt 0.281459 0.153169
vt 0.396570 0.153169
vt 0.396570 0.166607
vt 0.281459 0.166607
vt 0.410008 0.038058
vt 0.410008 0.153169
vt 0.268021 0.153169
vt 0.268021 0.038058
vt 0.339014 0.139666
vt 0.377165 0.117640
vt 0.300863 0.117640
vt 0.300863 0.073587
vt 0.339014 0.051561
vt 0.377165 0.073587
vt 0.198651 0.326308
vt 0.209161 0.327965
vt 0.207888 0.402097
vt 0.198169 0.401645
vt 0.219269 0.328962
vt 0.217155 0.402490
vt 0.229418 0.328548
vt 0.226429 0.402630
vt 0.240005 0.327497
vt 0.236158 0.402737
vt 0.250166 0.327385
vt 0.245447 0.403204
vt 0.188514 0.325612
vt 0.188868 0.401577
vt 0.226764 0.111261
vt 0.226739 0.098853
vt 0.236831 0.105037
vt 0.236856 0.117444
vt 0.246923 0.111220
vt 0.246898 0.098813
vt 0.236806 0.092630
vt 0.255053 0.055369
vt 0.255053 0.063153
vt 0.248823 0.059261
vt 0.248823 0.067044
vt 0.242593 0.063153
vt 0.242593 0.055369
vt 0.248823 0.051477
vt 0.197757 0.253339
vt 0.209673 0.256502
vt 0.221302 0.258267
vt 0.233013 0.257173
vt 0.245091 0.254700
vt 0.256870 0.253852
vt 0.186046 0.251815
vt 0.199968 0.474458
vt 0.192617 0.473891
vt 0.237549 0.475183
vt 0.230178 0.475326
vt 0.222412 0.476443
vt 0.215014 0.476937
vt 0.207657 0.476018
vt 0.199853 0.175012
vt 0.211752 0.178697
vt 0.223532 0.180693
vt 0.235408 0.179378
vt 0.247499 0.176382
vt 0.259269 0.175086
vt 0.188176 0.173041
vn 0.000000 0.000000 1.000000
vn 0.000000 0.000000 1.000000
vn 0.000000 0.000000 1.000000
vn 0.000000 0.000000 1.000000
vn 0.000000 1.000000 0.000000
vn 0.000000 1.000000 0.000000
vn 0.000000 1.000000 0.000000
vn 0.000000 1.000000 0.000000
vn 0.000000 0.000000 -1.000000
vn 0.000000 0.000000 -1.000000
vn 0.000000 0.000000 -1.000000
vn 0.000000 0.000000 -1.000000
vn 0.000000 -1.000000 0.000000
vn 0.000000 -1.000000 0.000000
vn 0.000000 -1.000000 0.000000
vn 0.000000 -1.000000 0.000000
vn 1.000000 0.000000 0.000000
vn 1.000000 0.000000 0.000000
vn 1.000000 0.000000 0.000000
vn 1.000000 0.000000 0.000000
vn -1.000000 0.000000 0.000000
vn -1.000000 0.000000 0.000000
vn -1.000000 0.000000 0.000000
vn -1.000000 0.000000 0.000000
vn 0.000000 -1.000000 0.000000
vn 0.000000 -1.000000 0.000000
vn 0.000000 -1.000000 0.000000
vn 0.000000 -1.000000 0.000000
vn 0.197016 0.980400 0.000000
vn 0.197016 0.980400 0.000000
vn 0.000000 -1.000000 0.000000
vn 0.000000 -1.000000 0.000000
vn 0.000000 -1.000000 0.000000
vn 0.000000 -1.000000 0.000000
vn -0.073553 0.997291 0.000000
vn -0.073553 0.997291 0.000000
vn 0.499336 0.051508 -0.864876
vn 0.499336 0.051508 -0.864876
vn 0.499337 0.051508 -0.864876
vn 0.499337 0.051508 -0.864876
vn -0.499336 0.051508 -0.864876
vn -0.499336 0.051508 -0.864876
vn -0.998673 0.051508 0.000000
vn -0.998673 0.051508 0.000000
vn -0.499336 0.051508 0.864876
vn -0.499336 0.051508 0.864876
vn 0.499336 0.051508 0.864876
vn 0.499336 0.051508 0.864876
vn 0.000000 1.000000 0.000000
vn 0.000000 1.000000 0.000000
vn 0.000000 1.000000 0.000000
vn 0.000000 1.000000 -0.000001
vn 0.000000 1.000000 -0.000001
vn 0.000000 1.000000 -0.000001
vn 0.000000 1.000000 0.000000
vn 0.000000 1.000000 0.000000
vn 0.000000 1.000000 0.000000
vn 0.000000 1.000000 -0.000011
vn 0.000000 1.000000 -0.000011
vn 0.000000 1.000000 -0.000011
vn 0.000000 1.000000 -0.000003
vn 0.000000 1.000000 -0.000003
vn 0.000000 1.000000 -0.000003
vn 0.000000 1.000000 0.000000
vn 0.000000 1.000000 0.000000
vn 0.000000 1.000000 0.000000
vn 0.392673 0.619057 -0.680130
vn 0.392673 0.619057 -0.680130
vn 0.392673 0.619057 -0.680130
vn 0.392673 0.619057 -0.680130
vn -0.392673 0.619058 -0.680129
vn -0.392673 0.619058 -0.680129
vn -0.785345 0.619058 0.000000
vn -0.785345 0.619058 0.000000
vn -0.392672 0.619059 0.680128
vn -0.392672 0.619059 0.680128
vn 0.392672 0.619058 0.680129
vn 0.392672 0.619058 0.680129
vn 0.500005 0.000000 -0.866023
vn 0.500005 0.000000 -0.866023
vn 0.500005 0.000000 -0.866023
vn 0.500005 0.000000 -0.866023
vn -0.500001 0.000000 -0.866025
vn -0.500001 0.000000 -0.866025
vn -1.000000 0.000000 0.000000
vn -1.000000 0.000000 0.000000
vn -0.500005 0.000000 0.866023
vn -0.500005 0.000000 0.866023
vn 0.499997 0.000000 0.866027
vn 0.499997 0.000000 0.866027
vn 0.500004 0.000000 -0.866023
vn 0.500004 0.000000 -0.866023
vn 0.500004 0.000000 -0.866023
vn 0.500004 0.000000 -0.866023
vn -0.500000 0.000000 -0.866026
vn -0.499999 0.000000 -0.866026
vn -1.000000 0.000000 -0.000001
vn -1.000000 0.000000 -0.000001
vn -0.500004 0.000000 0.866023
vn -0.500004 0.000000 0.866023
vn 0.499998 0.000000 0.866027
vn 0.499998 0.000000 0.866027
vn 0.500002 0.000000 -0.866024
vn 0.500002 0.000000 -0.866024
vn 0.500002 0.000000 -0.866024
vn 0.500002 0.000000 -0.866024
vn -0.500000 0.000000 -0.866026
vn -0.500000 0.000000 -0.866026
vn -1.000000 0.000000 0.000000
vn -1.000000 0.000000 0.000000
vn -0.500002 0.000000 0.866024
vn -0.500002 0.000000 0.866024
vn 0.499999 0.000000 0.866026
vn 0.499999 0.000000 0.866026
vn 0.000000 -1.000000 -0.000011
vn 0.000000 -1.000000 -0.000011
vn 0.000000 -1.000000 -0.000011
vn 0.000000 -1.000000 -0.000011
vn 0.000000 1.000000 0.000000
vn 0.000000 1.000000 0.000000
vn 0.000000 1.000000 0.000000
vn 0.000000 1.000000 0.000000
vn 0.000000 -1.000000 -0.000020
vn 0.000000 -1.000000 -0.000020
vn 0.000000 -1.000000 -0.000020
vn 0.000000 -1.000000 -0.000020
vn 0.000000 1.000000 -0.000005
vn 0.000000 1.000000 -0.000005
vn 0.000000 1.000000 -0.000005
vn 0.000000 1.000000 -0.000005
vn 0.000000 -1.000000 0.000000
vn 0.000000 -1.000000 0.000000
vn 0.000000 -1.000000 0.000000
vn 0.000000 -1.000000 0.000000
vn 0.000000 1.000000 0.000000
vn 0.000000 1.000000 0.000000
vn 0.000000 1.000000 0.000000
vn 0.000000 1.000000 0.000000
vn 0.000000 -1.000000 0.000005
vn 0.000000 -1.000000 0.000005
vn 0.000000 -1.000000 0.000005
vn 0.000000 -1.000000 0.000005
vn 0.000000 1.000000 0.000001
vn 0.000000 1.000000 0.000001
vn 0.000000 1.000000 0.000001
vn 0.000000 1.000000 0.000001
vn 0.000000 -1.000000 -0.000005
vn 0.000000 -1.000000 -0.000005
vn 0.000000 -1.000000 -0.000005
vn 0.000000 -1.000000 -0.000005
vn 0.000000 1.000000 0.000005
vn 0.000000 1.000000 0.000005
vn 0.000000 1.000000 0.000005
vn 0.000000 1.000000 0.000005
vn 0.000000 -1.000000 0.000005
vn 0.000000 -1.000000 0.000005
vn 0.000000 -1.000000 0.000005
vn 0.000000 -1.000000 0.000005
vn 0.000000 1.000000 0.000000
vn 0.000000 1.000000 0.000000
vn 0.000000 1.000000 0.000000
vn 0.000000 1.000000 0.000000
vn 0.000000 0.000000 1.000000
vn 0.000000 0.000000 1.000000
vn 0.000000 0.000000 1.000000
vn 0.000000 0.000000 1.000000
vn 0.000000 0.000000 -1.000000
vn 0.000000 0.000000 -1.000000
vn 0.000000 0.000000 -1.000000
vn 0.000000 0.000000 -1.000000
vn 1.000000 0.000000 0.000000
vn 1.000000 0.000000 0.000000
vn 1.000000 0.000000 0.000000
vn 1.000000 0.000000 0.000000
vn -1.000000 0.000000 0.000000
vn -1.000000 0.000000 0.000000
vn -1.000000 0.000000 0.000000
vn -1.000000 0.000000 0.000000
vn 0.000000 1.000000 0.000000
vn 0.000000 1.000000 0.000000
vn 0.000000 1.000000 0.000000
vn 0.000000 1.000000 0.000000
vn 0.000000 1.000000 0.000000
vn 0.000000 1.000000 0.000000
vn -0.000001 1.000000 0.000000
vn -0.000001 1.000000 0.000000
vn -0.000001 1.000000 0.000000
vn -0.000001 1.000000 0.000000
vn 0.000000 1.000000 0.000000
vn 0.000000 1.000000 0.000000
vn 0.000000 1.000000 0.000000
vn 0.000000 1.000000 0.000000
vn 0.000000 1.000000 0.000000
vn 0.000000 1.000000 0.000000
vn 0.000001 1.000000 0.000000
vn 0.000001 1.000000 0.000000
vn 0.000001 1.000000 0.000000
vn 0.000001 1.000000 0.000000
vn 0.000000 1.000000 -0.000001
vn 0.000000 1.000000 -0.000001
vn 0.000000 1.000000 -0.000001
vn 0.000000 1.000000 0.000001
vn 0.000000 1.000000 0.000001
vn 0.000000 1.000000 0.000001
vn 0.015351 0.003293 -0.999877
vn 0.014338 0.003076 -0.999893
vn 0.015815 0.002353 -0.999872
vn 0.015441 0.002334 -0.999878
vn -0.289761 0.803072 -0.520686
vn -0.201262 0.827643 -0.523928
vn -0.294496 0.801547 0.520379
vn -0.202486 0.827353 0.523915
vn 0.015351 0.003294 0.999877
vn 0.015441 0.002334 0.999878
vn 0.324600 -0.791324 0.518114
vn 0.235521 -0.819618 0.522261
vn -0.977749 -0.209779 0.000000
vn -0.977749 -0.209779 0.000000
vn -0.977749 -0.209779 0.000000
vn -0.977749 -0.209778 0.000000
vn -0.977749 -0.209779 0.000000
vn -0.977749 -0.209779 0.000000
vn -0.977749 -0.209779 0.000000
vn -0.977749 -0.209778 0.000000
vn -0.977749 -0.209779 0.000000
vn -0.977749 -0.209779 0.000000
vn -0.977749 -0.209779 0.000000
vn -0.977749 -0.209779 0.000000
vn -0.977749 -0.209779 0.000000
vn -0.977749 -0.209779 0.000000
vn -0.977749 -0.209779 0.000000
vn -0.977749 -0.209779 0.000000
vn -0.977749 -0.209779 0.000000
vn -0.977749 -0.209779 0.000000
vn 1.000000 0.000000 0.000000
vn 1.000000 0.000003 0.000000
vn 1.000000 0.000000 0.000000
vn 1.000000 0.000003 0.000000
vn 1.000000 0.000000 0.000000
vn 1.000000 0.000000 0.000000
vn 1.000000 0.000000 0.000000
vn 1.000000 -0.000003 0.000000
vn 1.000000 0.000000 0.000000
vn 1.000000 -0.000003 0.000000
vn 1.000000 0.000000 0.000000
vn 1.000000 0.000000 0.000000
vn 1.000000 0.000000 0.000000
vn 1.000000 0.000000 0.000000
vn 1.000000 0.000000 0.000000
vn 1.000000 0.000000 0.000000
vn 1.000000 0.000000 0.000000
vn 1.000000 0.000000 0.000000
vn 0.007696 0.001651 -0.999969
vn 0.010833 0.002324 -0.999939
vn 0.014338 0.003076 -0.999893
vn 0.015351 0.003293 -0.999877
vn -0.371327 0.773600 -0.513478
vn -0.289761 0.803072 -0.520686
vn -0.376925 0.771320 0.512828
vn -0.294496 0.801547 0.520379
vn 0.007696 0.001651 0.999969
vn 0.015351 0.003294 0.999877
vn 0.392707 -0.764707 0.510886
vn 0.324600 -0.791324 0.518114
vn 0.235521 -0.819619 -0.522258
vn 0.234620 -0.819881 -0.522253
vn 0.201887 -0.828874 -0.521737
vn 0.201887 -0.828874 -0.521737
vn 0.234620 -0.819880 0.522255
vn 0.201887 -0.828870 0.521743
vn 0.015815 0.002354 0.999872
vn 0.023090 0.002728 0.999730
vn -0.201262 0.827643 0.523928
vn -0.153201 0.837956 0.523794
vn -0.202486 0.827353 -0.523915
vn -0.153201 0.837956 -0.523794
vn 0.000000 0.000000 -1.000000
vn 0.000000 0.000000 -1.000000
vn 0.010833 0.002324 -0.999939
vn 0.007696 0.001651 -0.999969
vn -0.405447 0.759167 -0.509194
vn -0.371327 0.773600 -0.513478
vn -0.405447 0.759167 0.509194
vn -0.376925 0.771320 0.512828
vn 0.000000 0.000000 1.000000
vn 0.007696 0.001651 0.999969
vn 0.405447 -0.759166 0.509194
vn 0.392707 -0.764707 0.510886
s 1
g pCube4
usemtl LightPole_initialShadingGroup
f 1/1/1 2/2/2 4/3/3 3/4/4
f 17/5/5 18/6/6 19/7/7 20/8/8
f 5/9/9 6/10/10 8/11/11 7/12/12
s off
f 7/13/13 8/14/14 2/15/15 1/16/16
s 1
f 10/17/17 9/18/18 11/19/19 12/20/20
f 13/21/21 14/22/22 15/23/23 16/24/24
s off
f 2/15/25 8/14/26 9/25/27 10/26/28
s 1
f 8/11/11 6/10/10 11/19/19 9/18/18
f 19/7/7 18/6/6 21/27/29 22/28/30
f 4/3/3 2/2/2 10/17/17 12/20/20
s off
f 7/13/31 1/16/32 14/29/33 13/30/34
s 1
f 1/1/1 3/4/4 15/23/23 14/22/22
f 17/5/5 20/8/8 23/31/35 24/32/36
f 5/9/9 7/12/12 13/21/21 16/24/24
f 3/4/4 4/3/3 18/6/6 17/5/5
f 6/10/10 5/9/9 20/8/8 19/7/7
f 4/3/3 12/20/20 21/27/29 18/6/6
f 12/20/20 11/19/19 22/28/30 21/27/29
f 11/19/19 6/10/10 19/7/7 22/28/30
f 5/9/9 16/24/24 23/31/35 20/8/8
f 16/24/24 15/23/23 24/32/36 23/31/35
f 15/23/23 3/4/4 17/5/5 24/32/36
s 2
f 25/33/37 26/34/38 32/35/39 31/36/40
f 26/37/38 27/38/41 33/39/42 32/40/39
f 27/38/41 28/41/43 34/42/44 33/39/42
f 28/41/43 29/43/45 35/44/46 34/42/44
f 29/43/45 30/45/47 36/46/48 35/44/46
f 30/45/47 25/33/37 31/36/40 36/46/48
s off
f 43/47/49 44/48/50 45/49/51
f 44/48/52 46/50/53 45/49/54
f 46/50/55 47/51/56 45/49/57
f 47/51/58 48/52/59 45/49/60
f 48/52/61 49/53/62 45/49/63
f 49/53/64 43/47/65 45/49/66
s 3
f 31/36/67 32/35/68 38/54/69 37/55/70
f 32/40/68 33/39/71 39/56/72 38/57/69
f 33/39/71 34/42/73 40/58/74 39/56/72
f 34/42/73 35/44/75 41/59/76 40/58/74
f 35/44/75 36/46/77 42/60/78 41/59/76
f 36/46/77 31/36/67 37/55/70 42/60/78
s 4
f 50/61/79 51/62/80 44/63/81 43/64/82
f 51/65/80 52/66/83 46/67/84 44/68/81
f 52/66/83 53/69/85 47/70/86 46/67/84
f 53/69/85 54/71/87 48/72/88 47/70/86
f 54/71/87 55/73/89 49/74/90 48/72/88
f 55/73/89 50/61/79 43/64/82 49/74/90
s 5
f 62/75/91 63/76/92 64/77/93 65/78/94
f 63/79/92 66/80/95 67/81/96 64/82/93
f 66/80/95 68/83/97 69/84/98 67/81/96
f 68/83/97 70/85/99 71/86/100 69/84/98
f 70/85/99 72/87/101 73/88/102 71/86/100
f 72/87/101 62/75/91 65/78/94 73/88/102
s 6
f 37/55/103 38/54/104 57/89/105 56/90/106
f 38/57/104 39/56/107 58/91/108 57/92/105
f 39/56/107 40/58/109 59/93/110 58/91/108
f 40/58/109 41/59/111 60/94/112 59/93/110
f 41/59/111 42/60/113 61/95/114 60/94/112
f 42/60/113 37/55/103 56/90/106 61/95/114
s off
f 56/90/115 57/89/116 63/76/117 62/75/118
f 51/62/119 50/61/120 65/78/121 64/77/122
f 57/92/123 58/91/124 66/80/125 63/79/126
f 52/66/127 51/65/128 64/82/129 67/81/130
f 58/91/131 59/93/132 68/83/133 66/80/134
f 53/69/135 52/66/136 67/81/137 69/84/138
f 59/93/139 60/94/140 70/85/141 68/83/142
f 54/71/143 53/69/144 69/84/145 71/86/146
f 60/94/147 61/95/148 72/87/149 70/85/150
f 55/73/151 54/71/152 71/86/153 73/88/154
f 61/95/155 56/90/156 62/75/157 72/87/158
f 50/61/159 55/73/160 73/88/161 65/78/162
f 74/96/163 75/97/164 77/98/165 76/99/166
f 78/100/167 79/101/168 81/102/169 80/103/170
f 75/104/171 81/105/172 79/101/173 77/98/174
f 80/106/175 74/107/176 76/99/177 78/100/178
f 26/108/179 25/109/180 79/101/181
f 27/110/182 26/108/183 78/100/184
f 28/111/185 27/110/186 78/100/187 76/99/188
f 29/112/189 28/111/190 76/99/191
f 30/113/192 29/112/193 77/98/194
f 25/109/195 30/113/196 77/98/197 79/101/198
f 78/100/199 26/108/200 79/101/201
f 77/98/202 29/112/203 76/99/204
s 7
f 96/114/205 97/115/206 107/116/207 102/117/208
f 97/115/206 98/118/209 106/119/210 107/116/207
f 98/118/209 99/120/211 105/121/212 106/119/210
f 99/120/211 100/122/213 104/123/214 105/121/212
f 100/122/213 101/124/215 103/125/216 104/123/214
f 101/126/215 96/114/205 102/117/208 103/127/216
s off
f 83/128/217 82/129/218 94/130/219
f 84/131/220 83/128/221 94/130/222
f 85/132/223 84/131/224 94/130/225
f 86/133/226 85/132/227 94/130/228
f 87/134/229 86/133/230 94/130/231
f 82/129/232 87/134/233 94/130/234
f 88/135/235 89/136/236 95/137/237
f 89/136/238 90/138/239 95/137/240
f 90/138/241 91/139/242 95/137/243
f 91/139/244 92/140/245 95/137/246
f 92/140/247 93/141/248 95/137/249
f 93/141/250 88/135/251 95/137/252
s 8
f 108/142/253 109/143/254 97/115/255 96/114/256
f 109/143/254 110/144/257 98/118/258 97/115/255
f 110/144/257 111/145/259 99/120/260 98/118/258
f 111/145/259 112/146/261 100/122/262 99/120/260
f 112/146/261 113/147/263 101/124/264 100/122/262
f 113/148/263 108/142/253 96/114/256 101/126/264
s 9
f 103/127/265 102/117/266 88/149/267 93/150/268
f 104/123/269 103/125/265 93/151/268 92/152/270
f 105/121/271 104/123/269 92/152/270 91/153/272
f 106/119/273 105/121/271 91/153/272 90/154/274
f 107/116/275 106/119/273 90/154/274 89/155/276
f 102/117/266 107/116/275 89/155/276 88/149/267
s 10
f 82/156/277 83/157/278 109/143/279 108/142/280
f 83/157/278 84/158/281 110/144/282 109/143/279
f 84/158/281 85/159/283 111/145/284 110/144/282
f 85/159/283 86/160/285 112/146/286 111/145/284
f 86/160/285 87/161/287 113/147/288 112/146/286
f 87/162/287 82/156/277 108/142/280 113/148/288
