# This file uses centimeters as units for non-parametric coordinates.

mtllib BillBoard1.mtl
g default
v -88.259682 124.573189 -0.059777
v 88.259682 124.573189 -0.059777
v 88.259682 224.573181 -0.059777
v -88.259682 224.573181 -0.059777
v -88.259682 124.573189 3.165370
v 88.259682 124.573189 3.165370
v -88.259682 224.573181 3.165370
v 88.259682 224.573181 3.165370
v -93.040833 119.792030 3.165370
v 93.040833 119.792030 3.165370
v -93.040833 229.354340 3.165370
v 93.040833 229.354340 3.165370
v -93.040833 119.792030 -3.165370
v 93.040833 119.792030 -3.165370
v -93.040833 229.354340 -3.165370
v 93.040833 229.354340 -3.165370
v 84.857986 0.000000 1.641065
v 88.259674 0.000000 1.641065
v 84.857994 119.792030 1.641065
v 88.259674 119.792030 1.641065
v 84.857994 119.792030 -1.760620
v 88.259674 119.792030 -1.760620
v 84.857986 0.000000 -1.760620
v 88.259674 0.000000 -1.760620
v -88.259674 0.000000 1.641065
v -84.857986 0.000000 1.641065
v -88.259674 119.792030 1.641065
v -84.857986 119.792030 1.641065
v -88.259674 119.792030 -1.760620
v -84.857986 119.792030 -1.760620
v -88.259674 0.000000 -1.760620
v -84.857986 0.000000 -1.760620
vt 0.007680 0.011419
vt 0.984766 0.011419
vt 0.984766 0.564948
vt 0.007680 0.564948
vt 0.053532 0.946892
vt 0.642130 0.946892
vt 0.648847 0.954836
vt 0.046802 0.954836
vt 0.642130 0.611423
vt 0.053532 0.611423
vt 0.046802 0.603461
vt 0.648847 0.603461
vt 0.665584 0.971339
vt 0.029945 0.971339
vt 0.029945 0.587011
vt 0.665584 0.587011
vt 0.679133 0.986903
vt 0.016398 0.986903
vt 0.016398 0.571395
vt 0.679133 0.571395
vt 0.613852 0.801183
vt 0.613862 0.816356
vt 0.079508 0.816688
vt 0.079498 0.801515
vt 0.079527 0.847036
vt 0.079517 0.831862
vt 0.613871 0.831530
vt 0.613880 0.846704
vt 0.613843 0.786009
vt 0.079489 0.786341
vt 0.609251 0.882859
vt 0.609260 0.898033
vt 0.074907 0.898365
vt 0.074897 0.883191
vt 0.074926 0.928713
vt 0.074916 0.913539
vt 0.609270 0.913207
vt 0.609279 0.928380
vt 0.609241 0.867685
vt 0.074888 0.868018
vn 0.000000 0.000000 1.000000
vn 0.000000 0.000000 1.000000
vn 0.000000 0.000000 1.000000
vn 0.000000 0.000000 1.000000
vn 0.000000 1.000000 0.000000
vn 0.000000 1.000000 0.000000
vn 0.000000 1.000000 0.000000
vn 0.000000 1.000000 0.000000
vn 0.000000 -1.000000 0.000000
vn 0.000000 -1.000000 0.000000
vn 0.000000 -1.000000 0.000000
vn 0.000000 -1.000000 0.000000
vn 1.000000 0.000000 0.000000
vn 1.000000 0.000000 0.000000
vn 1.000000 0.000000 0.000000
vn 1.000000 0.000000 0.000000
vn -1.000000 0.000000 0.000000
vn -1.000000 0.000000 0.000000
vn -1.000000 0.000000 0.000000
vn -1.000000 0.000000 0.000000
vn -0.000000 0.000000 1.000000
vn 0.000000 0.000000 1.000000
vn 0.000000 0.000000 1.000000
vn -0.000000 0.000000 1.000000
vn 0.000000 0.000000 1.000000
vn -0.000000 0.000000 1.000000
vn -0.000000 0.000000 1.000000
vn 0.000000 0.000000 1.000000
vn 0.000000 -1.000000 0.000000
vn 0.000000 -1.000000 0.000000
vn 0.000000 -1.000000 0.000000
vn 0.000000 -1.000000 0.000000
vn 0.000000 1.000000 0.000000
vn 0.000000 1.000000 0.000000
vn 0.000000 1.000000 0.000000
vn 0.000000 1.000000 0.000000
vn -1.000000 0.000000 0.000000
vn -1.000000 0.000000 0.000000
vn -1.000000 0.000000 0.000000
vn -1.000000 0.000000 0.000000
vn 1.000000 0.000000 0.000000
vn 1.000000 0.000000 0.000000
vn 1.000000 0.000000 0.000000
vn 1.000000 0.000000 0.000000
vn 0.000000 0.000000 1.000000
vn 0.000000 0.000000 1.000000
vn 0.000000 0.000000 1.000000
vn 0.000000 0.000000 1.000000
vn 0.000000 0.000000 -1.000000
vn 0.000000 0.000000 -1.000000
vn 0.000000 0.000000 -1.000000
vn 0.000000 0.000000 -1.000000
vn 1.000000 0.000000 0.000000
vn 1.000000 0.000000 0.000000
vn 1.000000 0.000000 0.000000
vn 1.000000 0.000000 0.000000
vn -1.000000 0.000000 0.000000
vn -1.000000 0.000000 0.000000
vn -1.000000 0.000000 0.000000
vn -1.000000 0.000000 0.000000
vn 0.000000 0.000000 1.000000
vn 0.000000 0.000000 1.000000
vn 0.000000 0.000000 1.000000
vn 0.000000 0.000000 1.000000
vn 0.000000 0.000000 -1.000000
vn 0.000000 0.000000 -1.000000
vn 0.000000 0.000000 -1.000000
vn 0.000000 0.000000 -1.000000
vn 1.000000 0.000000 0.000000
vn 1.000000 0.000000 0.000000
vn 1.000000 0.000000 0.000000
vn 1.000000 0.000000 0.000000
vn -1.000000 0.000000 0.000000
vn -1.000000 0.000000 0.000000
vn -1.000000 0.000000 0.000000
vn -1.000000 0.000000 0.000000
s off
g polySurface1
usemtl initialShadingGroup
f 1/1/1 2/2/2 3/3/3 4/4/4
f 2/5/5 1/6/6 5/7/7 6/8/8
f 4/9/9 3/10/10 8/11/11 7/12/12
f 1/6/13 4/9/14 7/12/15 5/7/16
f 3/10/17 2/5/18 6/8/19 8/11/20
s 1
f 6/8/21 5/7/22 9/13/23 10/14/24
f 7/12/25 8/11/26 12/15/27 11/16/28
f 5/7/22 7/12/25 11/16/28 9/13/23
f 8/11/26 6/8/21 10/14/24 12/15/27
s off
f 10/14/29 9/13/30 13/17/31 14/18/32
f 11/16/33 12/15/34 16/19/35 15/20/36
f 9/13/37 11/16/38 15/20/39 13/17/40
f 12/15/41 10/14/42 14/18/43 16/19/44
f 17/21/45 18/22/46 20/23/47 19/24/48
f 21/25/49 22/26/50 24/27/51 23/28/52
f 18/22/53 24/27/54 22/26/55 20/23/56
f 23/29/57 17/21/58 19/24/59 21/30/60
f 25/31/61 26/32/62 28/33/63 27/34/64
f 29/35/65 30/36/66 32/37/67 31/38/68
f 26/32/69 32/37/70 30/36/71 28/33/72
f 31/39/73 25/31/74 27/34/75 29/40/76
